<svg width="50" height="50" viewBox="0 0 50 50" fill="none" xmlns="http://www.w3.org/2000/svg">
<g id="poisk" clip-path="url(#clip0_2014_10120)">
<circle id="Ellipse 2" cx="25" cy="25" r="24" stroke="#FFBC57" stroke-width="2"/>
<g id="Vector">
<path d="M16.9815 36.4524L36.4524 16.9815C37.1825 16.2513 37.1825 15.2778 36.4524 14.5476C35.7222 13.8175 34.7487 13.8175 34.0185 14.5476L14.5476 34.0185C13.8175 34.7487 13.8175 35.7222 14.5476 36.4524C15.2778 37.1825 16.2513 37.1825 16.9815 36.4524Z" fill="#535353"/>
<path d="M14.5477 16.9815L34.0186 36.4524C34.7487 37.1825 35.7223 37.1825 36.4524 36.4524C37.1826 35.7222 37.1826 34.7487 36.4524 34.0185L16.9815 14.5476C16.2514 13.8175 15.2778 13.8175 14.5477 14.5476C13.8175 15.2778 13.8175 16.2513 14.5477 16.9815Z" fill="#535353"/>
</g>
</g>
<defs>
<clipPath id="clip0_2014_10120">
<rect width="50" height="50" fill="white"/>
</clipPath>
</defs>
</svg>
