<svg width="24" height="24" viewBox="0 0 24 24" fill="none" xmlns="http://www.w3.org/2000/svg">
<rect width="24" height="24" fill="#585F64"/>
<g id="UI KIT">
<path d="M-2521 -851C-2521 -852.104 -2520.1 -853 -2519 -853H3939C3940.1 -853 3941 -852.105 3941 -851V3446C3941 3447.1 3940.1 3448 3939 3448H-2519C-2520.1 3448 -2521 3447.1 -2521 3446V-851Z" fill="#8C8A86"/>
<path d="M-2519 -852H3939V-854H-2519V-852ZM3940 -851V3446H3942V-851H3940ZM3939 3447H-2519V3449H3939V3447ZM-2520 3446V-851H-2522V3446H-2520ZM-2519 3447C-2519.55 3447 -2520 3446.55 -2520 3446H-2522C-2522 3447.66 -2520.66 3449 -2519 3449V3447ZM3940 3446C3940 3446.55 3939.55 3447 3939 3447V3449C3940.66 3449 3942 3447.66 3942 3446H3940ZM3939 -852C3939.55 -852 3940 -851.552 3940 -851H3942C3942 -852.657 3940.66 -854 3939 -854V-852ZM-2519 -854C-2520.66 -854 -2522 -852.657 -2522 -851H-2520C-2520 -851.552 -2519.55 -852 -2519 -852V-854Z" fill="white" fill-opacity="0.1"/>
<g id="&#208;&#154;&#208;&#176;&#209;&#130;&#208;&#176;&#208;&#187;&#208;&#190;&#208;&#179; &#209;&#130;&#208;&#190;&#208;&#178;&#208;&#176;&#209;&#128;&#208;&#190;&#208;&#178;" clip-path="url(#clip0_2_3)">
<rect width="1920" height="1060" transform="translate(-619 -98)" fill="#F8F8F8"/>
<g id="header">
<rect id="bg-white" x="-619" y="-38" width="1920" height="160" fill="white"/>
<g id="main">
<g id="btn-catalog">
<rect x="-20" y="-11" width="145" height="46" rx="8" fill="#FFBC57"/>
<g id="close-catalog">
<path id="Vector" d="M12 2C6.5 2 2 6.5 2 12C2 17.5 6.5 22 12 22C17.5 22 22 17.5 22 12C22 6.5 17.5 2 12 2ZM15.7 14.3C16.1 14.7 16.1 15.3 15.7 15.7C15.3 16.1 14.7 16.1 14.3 15.7L12 13.4L9.7 15.7C9.3 16.1 8.7 16.1 8.3 15.7C7.9 15.3 7.9 14.7 8.3 14.3L10.6 12L8.3 9.7C7.9 9.3 7.9 8.7 8.3 8.3C8.7 7.9 9.3 7.9 9.7 8.3L12 10.6L14.3 8.3C14.7 7.9 15.3 7.9 15.7 8.3C16.1 8.7 16.1 9.3 15.7 9.7L13.4 12L15.7 14.3Z" fill="white"/>
</g>
</g>
</g>
</g>
</g>
</g>
<defs>
<clipPath id="clip0_2_3">
<rect width="1920" height="1060" fill="white" transform="translate(-619 -98)"/>
</clipPath>
</defs>
</svg>
